<svg xmlns="http://www.w3.org/2000/svg">
  <defs>
    <symbol id="play" viewBox="0 0 24 24">
      <polygon points="5 3 19 12 5 21 5 3"></polygon>
    </symbol>
    <symbol id="pause" viewBox="0 0 24 24">
      <rect x="6" y="4" width="4" height="16"></rect><rect x="14" y="4" width="4" height="16"></rect>
    </symbol>
    <symbol id="fast-forward" viewBox="0 0 24 24">
      <polygon points="13 19 22 12 13 5 13 19"></polygon><polygon points="2 19 11 12 2 5 2 19"></polygon>
    </symbol>
    <symbol id="rewind" viewBox="0 0 24 24">
      <polygon points="11 19 2 12 11 5 11 19"></polygon><polygon points="22 19 13 12 22 5 22 19"></polygon>
    </symbol>
    <symbol id="repeat" viewBox="0 0 24 24">
      <polyline points="17 1 21 5 17 9"></polyline><path d="M3 11V9a4 4 0 0 1 4-4h14"></path><polyline points="7 23 3 19 7 15"></polyline><path d="M21 13v2a4 4 0 0 1-4 4H3"></path>
    </symbol>
    <symbol id="heart" viewBox="0 0 24 24">
      <path d="M20.84 4.61a5.5 5.5 0 0 0-7.78 0L12 5.67l-1.06-1.06a5.5 5.5 0 0 0-7.78 7.78l1.06 1.06L12 21.23l7.78-7.78 1.06-1.06a5.5 5.5 0 0 0 0-7.78z"></path>
    </symbol>
    <symbol id="shuffle" viewBox="0 0 24 24">
      <polyline points="16 3 21 3 21 8"></polyline><line x1="4" y1="20" x2="21" y2="3"></line><polyline points="21 16 21 21 16 21"></polyline><line x1="15" y1="15" x2="21" y2="21"></line><line x1="4" y1="4" x2="9" y2="9"></line>
    </symbol>
    <symbol id="search" viewBox="0 0 24 24">
      <circle cx="11" cy="11" r="8"/><line x1="21" y1="21" x2="16.65" y2="16.65"/>
    </symbol>
    <symbol id="chevron-right" viewBox="0 0 24 24">
      <polyline points="9 18 15 12 9 6"/>
    </symbol>
    <symbol id="chevron-left" viewBox="0 0 24 24">
      <polyline points="15 18 9 12 15 6"/>
    </symbol>
    <symbol id="more-vertical" viewBox="0 0 24 24">
      <circle cx="12" cy="12" r="1"/><circle cx="12" cy="5" r="1"/><circle cx="12" cy="19" r="1"/>
    </symbol>
    <symbol id="repeat-1" viewBox="0 0 24 24">
      <path d="M9.013,7 L9.563,7 L9.563,14.854 L8.881,14.854 L8.881,7.836 C8.375,8.386 7.748,8.771 7,8.991 L7,8.309 C7.363,8.199 7.726,8.034 8.078,7.814 C8.43,7.583 8.749,7.308 9.013,7 Z"></path><polyline points="14 0 18 4 14 8"></polyline> <path d="M0,10 L0,8 C-4.4408921e-16,5.790861 1.790861,4 4,4 L18,4"></path><polyline points="4 22 0 18 4 14"></polyline><path d="M18,12 L18,14 C18,16.209139 16.209139,18 14,18 L0,18"></path>
    </symbol>
  </defs>
</svg>
