<svg xmlns="http://www.w3.org/2000/svg">
  <defs>
    <symbol id="play" viewBox="0 0 24 24">
      <polygon points="5 3 19 12 5 21 5 3"></polygon>
    </symbol>
    <symbol id="pause" viewBox="0 0 24 24">
      <rect x="6" y="4" width="4" height="16"></rect><rect x="14" y="4" width="4" height="16"></rect>
    </symbol>
    <symbol id="fast-forward" viewBox="0 0 24 24">
      <polygon points="13 19 22 12 13 5 13 19"></polygon><polygon points="2 19 11 12 2 5 2 19"></polygon>
    </symbol>
    <symbol id="rewind" viewBox="0 0 24 24">
      <polygon points="11 19 2 12 11 5 11 19"></polygon><polygon points="22 19 13 12 22 5 22 19"></polygon>
    </symbol>
    <symbol id="repeat" viewBox="0 0 24 24">
      <polyline points="17 1 21 5 17 9"></polyline><path d="M3 11V9a4 4 0 0 1 4-4h14"></path><polyline points="7 23 3 19 7 15"></polyline><path d="M21 13v2a4 4 0 0 1-4 4H3"></path>
    </symbol>
    <symbol id="heart" viewBox="0 0 24 24">
      <path d="M20.84 4.61a5.5 5.5 0 0 0-7.78 0L12 5.67l-1.06-1.06a5.5 5.5 0 0 0-7.78 7.78l1.06 1.06L12 21.23l7.78-7.78 1.06-1.06a5.5 5.5 0 0 0 0-7.78z"></path>
    </symbol>
    <symbol id="shuffle" viewBox="0 0 24 24">
      <polyline points="16 3 21 3 21 8"></polyline><line x1="4" y1="20" x2="21" y2="3"></line><polyline points="21 16 21 21 16 21"></polyline><line x1="15" y1="15" x2="21" y2="21"></line><line x1="4" y1="4" x2="9" y2="9"></line>
    </symbol>
    <symbol id="search" viewBox="0 0 24 24">
      <circle cx="11" cy="11" r="8"/><line x1="21" y1="21" x2="16.65" y2="16.65"/>
    </symbol>
  </defs>
</svg>
