<?xml version="1.0" encoding="UTF-8"?>
<svg width="480px" height="480px" viewBox="0 0 480 480" version="1.1" xmlns="http://www.w3.org/2000/svg" xmlns:xlink="http://www.w3.org/1999/xlink">
    <!-- Generator: Sketch 47.1 (45422) - http://www.bohemiancoding.com/sketch -->
    <title>logo</title>
    <desc>Created with Sketch.</desc>
    <defs></defs>
    <g id="Page-1" stroke="none" stroke-width="1" fill="none" fill-rule="evenodd">
        <g id="logo" transform="translate(5.000000, 4.000000)" fill-rule="nonzero">
            <path d="M467.804,143.013 C460.326,135.536 458.576,130.23 456.55,124.087 C454.257,117.133 451.657,109.251 441.658,99.251 C431.658,89.252 423.776,86.652 416.822,84.358 C410.678,82.333 405.373,80.583 397.895,73.104 C390.416,65.626 388.666,60.321 386.641,54.177 C384.347,47.223 381.747,39.341 371.748,29.341 C361.748,19.342 353.866,16.742 346.912,14.449 C340.769,12.423 335.463,10.673 327.986,3.195 C326.325,1.535 323.984,0.745 321.654,1.07 C319.327,1.391 317.285,2.786 316.137,4.836 C314.614,7.559 282.651,65.542 286.201,126.839 C272.117,114.159 254.092,107.217 234.998,107.217 C214.53,107.217 195.287,115.188 180.813,129.66 L128.659,181.814 C99.755,210.719 98.817,257.155 125.838,287.202 C64.539,283.657 6.56,315.616 3.837,317.139 C1.787,318.286 0.393,320.328 0.071,322.656 C-0.251,324.983 0.535,327.327 2.196,328.988 C9.674,336.465 11.424,341.771 13.45,347.914 C15.743,354.868 18.343,362.75 28.342,372.75 C38.342,382.749 46.224,385.349 53.178,387.643 C59.322,389.668 64.627,391.418 72.105,398.897 C79.584,406.375 81.334,411.68 83.359,417.824 C85.653,424.778 88.253,432.66 98.252,442.66 C108.252,452.659 116.134,455.259 123.088,457.552 C129.231,459.578 134.537,461.328 142.014,468.806 C143.431,470.222 145.342,471.002 147.318,471.002 C150.673,470.61 152.715,469.215 153.863,467.165 C155.387,464.442 187.349,406.459 183.799,345.162 C197.883,357.842 215.908,364.784 235.002,364.784 C255.47,364.784 274.713,356.813 289.187,342.341 L341.341,290.187 C370.247,261.28 371.183,214.837 344.155,184.79 C347.377,184.977 350.592,185.078 353.788,185.078 C411.399,185.078 463.585,156.307 466.165,154.864 C468.215,153.717 469.609,151.675 469.931,149.347 C470.251,147.018 469.465,144.674 467.804,143.013 Z" id="Shape" stroke="#FFFFFF" stroke-width="10" fill="#1C1C1C"></path>
            <path d="M202.029,150.875 C199.1,153.805 199.1,158.553 202.029,161.482 C203.494,162.946 205.414,163.678 207.333,163.678 C209.252,163.678 211.172,162.946 212.637,161.482 C224.966,149.15 245.032,149.15 257.366,161.482 C260.294,164.41 265.043,164.411 267.972,161.481 C270.901,158.552 270.901,153.803 267.971,150.875 C249.791,132.695 220.208,132.695 202.029,150.875 Z" id="Shape" fill="#FFFFFF"></path>
            <path d="M180.816,172.088 L149.875,203.029 C146.946,205.959 146.946,210.707 149.875,213.636 C151.34,215.1 153.26,215.832 155.179,215.832 C157.098,215.832 159.018,215.1 160.483,213.636 L191.424,182.695 C194.353,179.765 194.353,175.017 191.424,172.088 C188.493,169.16 183.745,169.16 180.816,172.088 Z" id="Shape" fill="#FFFFFF"></path>
        </g>
    </g>
</svg>