<?xml version="1.0" encoding="UTF-8"?>
<svg width="120px" height="120px" viewBox="0 0 120 120" version="1.1" xmlns="http://www.w3.org/2000/svg" xmlns:xlink="http://www.w3.org/1999/xlink">
    <!-- Generator: Sketch 55.2 (78181) - https://sketchapp.com -->
    <title>Icon</title>
    <desc>Created with Sketch.</desc>
    <defs>
        <circle id="path-1" cx="60" cy="60" r="60"></circle>
        <linearGradient x1="50%" y1="0%" x2="50%" y2="100%" id="linearGradient-3">
            <stop stop-color="#B932B4" offset="0%"></stop>
            <stop stop-color="#A15ABF" offset="100%"></stop>
        </linearGradient>
    </defs>
    <g id="Page-1" stroke="none" stroke-width="1" fill="none" fill-rule="evenodd">
        <g id="iOS-App-Icon-Template" transform="translate(-700.000000, -918.000000)">
            <g id="Icon" transform="translate(700.000000, 918.000000)">
                <mask id="mask-2" fill="white">
                    <use xlink:href="#path-1"></use>
                </mask>
                <use id="Mask" fill="#D8D8D8" opacity="0" xlink:href="#path-1"></use>
                <rect id="Background" fill="url(#linearGradient-3)" mask="url(#mask-2)" x="0" y="0" width="120" height="120" rx="8"></rect>
                <g id="candy_center" mask="url(#mask-2)">
                    <g transform="translate(-11.015625, -11.015625)">
                        <g id="Group-3" stroke-width="1" fill="none">
                            <rect id="Rectangle" fill-opacity="0" fill="#979797" x="0.0984177292" y="-2.72848411e-12" width="141.390931" height="142.321135"></rect>
                            <g id="Group-4" transform="translate(82.186031, 95.278637)" fill="#BFBFBF">
                                <path d="M0.434938326,4.06834176 C-0.0601257408,3.16934676 0.262561716,2.03659828 1.15568093,1.53827721 L3.34592849,0.316215837 C4.2390477,-0.18210523 5.3643926,0.142705172 5.85945667,1.04170017 L31.034918,46.7582356 C31.1078142,46.890609 23.7211824,46.7881635 23.7194705,46.8448567 L0.434938326,4.06834176 Z" id="Combined-Shape"></path>
                            </g>
                            <g id="Group-2" transform="translate(70.793883, 71.160567) rotate(-29.000000) translate(-70.793883, -71.160567) translate(37.077584, 39.193051)">
                                <path d="M64.9876945,31.9364977 C64.9876945,14.2984571 51.1037197,-3.26849658e-13 33.9769689,-3.26849658e-13 C16.8502181,-3.26849658e-13 2.96624332,14.2984571 2.96624332,31.9364977" id="Path" fill="#121212"></path>
                                <path d="M64.718036,63.8729955 C64.718036,46.2349548 50.8340612,31.9364977 33.7073104,31.9364977 C16.5805596,31.9364977 2.69658483,46.2349548 2.69658483,63.8729955" id="Path" fill="#3B3B3B" transform="translate(33.707310, 47.904747) rotate(180.000000) translate(-33.707310, -47.904747) "></path>
                                <rect id="Rectangle" fill="#212121" x="-2.84217094e-13" y="28.6039936" width="67.4146208" height="6.9427169" rx="2.8125"></rect>
                                <path d="M48.8458177,2.22549734 L49.7390049,2.21245315 C51.1973426,2.19115526 52.4946974,3.13501834 52.9232945,4.5291155 C53.8549926,7.55964861 54.2996139,10.5240001 54.2571584,13.42217 C54.2146837,16.321654 53.6846903,19.1548963 52.6671784,21.921897 C52.1985091,23.1963663 50.9932321,24.0504868 49.6354657,24.0703158 L48.525574,24.0865247 C47.2966826,24.1044716 46.2859204,23.122807 46.2679736,21.8939156 C46.2644381,21.6518298 46.3004321,21.4107895 46.3745472,21.1803009 C47.2469789,18.4667168 47.7027898,15.7722934 47.7419799,13.0970305 C47.7806772,10.4554079 47.4131655,7.83246703 46.6394448,5.2282079 C46.2717992,3.9908081 46.9768901,2.68967029 48.2142944,2.32203972 C48.4193912,2.26110582 48.6318834,2.22862166 48.8458177,2.22549734 Z" id="Rectangle" fill="#EDEDED" transform="translate(49.761751, 13.156011) rotate(-48.000000) translate(-49.761751, -13.156011) "></path>
                            </g>
                        </g>
                        <path d="M98.4771434,97.2482373 C98.7164514,97.2475707 98.9109892,97.4410278 98.9116557,97.6803358 C98.911658,97.681139 98.911658,97.6819422 98.9116558,97.6827454 L98.7987801,138.348956 C98.798111,138.589989 98.6028823,138.78522 98.3618489,138.785891 C98.1225409,138.786558 97.9280031,138.5931 97.9273366,138.353792 C97.9273343,138.352989 97.9273343,138.352186 97.9273366,138.351383 L98.0402123,97.6851727 C98.0408813,97.4441392 98.23611,97.2489087 98.4771434,97.2482373 Z" id="Rectangle" fill="#FFFFFF" transform="translate(98.419496, 118.017064) rotate(-29.000000) translate(-98.419496, -118.017064) "></path>
                    </g>
                </g>
            </g>
        </g>
    </g>
</svg>